<svg xmlns="http://www.w3.org/2000/svg" width="160.187" height="90.777" viewBox="0 0 160.187 90.777">
  <g id="Group_19" data-name="Group 19" transform="translate(-1413.125 -806.5)">
    <path id="Path_1" data-name="Path 1" d="M9.331,6.82a9.434,9.434,0,0,1-4.464-.914A6.085,6.085,0,0,1,2.449,3.813,4.093,4.093,0,0,1,1.736,1.8a.668.668,0,0,1,.217-.512.746.746,0,0,1,.527-.2H5.239a.823.823,0,0,1,.48.14.975.975,0,0,1,.326.512A3.628,3.628,0,0,0,7.068,3.115a3.23,3.23,0,0,0,2.108.574A3.863,3.863,0,0,0,11.9,2.868,3.851,3.851,0,0,0,12.772,0V-2.108A5.863,5.863,0,0,1,8.029-.124,5.954,5.954,0,0,1,3.178-2.077,8.591,8.591,0,0,1,1.426-7.409L1.4-8.246l.031-.837a8.716,8.716,0,0,1,1.767-5.332A5.875,5.875,0,0,1,8.029-16.43a6.368,6.368,0,0,1,2.883.62,5.8,5.8,0,0,1,2.046,1.674v-1.209a.729.729,0,0,1,.233-.558.77.77,0,0,1,.542-.217h2.542a.717.717,0,0,1,.527.217.755.755,0,0,1,.217.558L17.05-.4a7.142,7.142,0,0,1-1.922,5.332Q13.206,6.82,9.331,6.82ZM9.207-3.41a3.1,3.1,0,0,0,2.6-1.116,4.776,4.776,0,0,0,.961-2.728q.031-.248.031-.992t-.031-.992a4.776,4.776,0,0,0-.961-2.728,3.1,3.1,0,0,0-2.6-1.116q-3.348,0-3.534,4.092l-.031.744Q5.642-3.41,9.207-3.41ZM21.886,0a.717.717,0,0,1-.527-.217.717.717,0,0,1-.217-.527v-14.6a.755.755,0,0,1,.217-.558.717.717,0,0,1,.527-.217h2.542a.755.755,0,0,1,.558.217.755.755,0,0,1,.217.558v1.271a5.262,5.262,0,0,1,4.464-2.046h1.3a.733.733,0,0,1,.543.2.733.733,0,0,1,.2.542v2.263a.746.746,0,0,1-.2.527.7.7,0,0,1-.543.217H28.52a3.1,3.1,0,0,0-2.294.837,3.1,3.1,0,0,0-.837,2.294V-.744a.717.717,0,0,1-.217.527A.717.717,0,0,1,24.645,0ZM41.075.31a7.939,7.939,0,0,1-5.642-1.86A7.2,7.2,0,0,1,33.294-6.7L33.263-8.06l.031-1.364a7.16,7.16,0,0,1,2.17-5.131,7.919,7.919,0,0,1,5.611-1.875,7.873,7.873,0,0,1,5.58,1.875,7.16,7.16,0,0,1,2.17,5.131q.031.372.031,1.364T48.825-6.7A7.2,7.2,0,0,1,46.686-1.55,7.892,7.892,0,0,1,41.075.31Zm0-3.131A3.157,3.157,0,0,0,43.6-3.844a4.719,4.719,0,0,0,.945-3.007q.031-.31.031-1.209t-.031-1.209a4.729,4.729,0,0,0-.961-3.023,3.144,3.144,0,0,0-2.511-1.038,3.181,3.181,0,0,0-2.542,1.038,4.729,4.729,0,0,0-.961,3.023L37.541-8.06l.031,1.209a4.661,4.661,0,0,0,.961,3.007A3.2,3.2,0,0,0,41.075-2.821ZM56.234,0a1,1,0,0,1-1.023-.775L50.778-15.159a.94.94,0,0,1-.031-.279.684.684,0,0,1,.186-.48.607.607,0,0,1,.465-.2h2.356a.843.843,0,0,1,.543.186.814.814,0,0,1,.294.4L57.6-5.332l3.193-10.106a1.079,1.079,0,0,1,.326-.48.89.89,0,0,1,.6-.2H63.3a.89.89,0,0,1,.6.2.877.877,0,0,1,.294.48L67.425-5.332l3.007-10.2a.843.843,0,0,1,.279-.4.827.827,0,0,1,.558-.186h2.325a.656.656,0,0,1,.48.2.656.656,0,0,1,.2.48l-.062.279L69.781-.775a1.269,1.269,0,0,1-.356.574.938.938,0,0,1-.635.2H66.743A.968.968,0,0,1,65.72-.775l-3.193-9.734L59.3-.775A1.016,1.016,0,0,1,58.249,0ZM78.027,0A.717.717,0,0,1,77.5-.217a.717.717,0,0,1-.217-.527v-14.6A.755.755,0,0,1,77.5-15.9a.717.717,0,0,1,.527-.217h2.542a.755.755,0,0,1,.558.217.755.755,0,0,1,.217.558v1.271a5.262,5.262,0,0,1,4.464-2.046h1.3a.733.733,0,0,1,.542.2.733.733,0,0,1,.2.542v2.263a.746.746,0,0,1-.2.527.7.7,0,0,1-.542.217H84.661a3.1,3.1,0,0,0-2.294.837,3.1,3.1,0,0,0-.837,2.294V-.744a.717.717,0,0,1-.217.527A.717.717,0,0,1,80.786,0ZM89.156,0a.717.717,0,0,1-.527-.217.717.717,0,0,1-.217-.527V-3.875a.717.717,0,0,1,.217-.527.717.717,0,0,1,.527-.217h3.131a.717.717,0,0,1,.527.217.717.717,0,0,1,.217.527V-.744a.746.746,0,0,1-.2.527A.7.7,0,0,1,92.287,0Z" transform="translate(1480.281 856.596)" fill="#fff"/>
    <g id="Group_8" data-name="Group 8" transform="translate(1413.125 806.5)">
      <circle id="Ellipse_275" data-name="Ellipse 275" cx="24.292" cy="24.292" r="24.292" transform="translate(0 6.393)" fill="#fff"/>
      <circle id="Ellipse_273" data-name="Ellipse 273" cx="7.671" cy="7.671" r="7.671" transform="translate(38.804 0)" fill="#fff"/>
      <circle id="Ellipse_274" data-name="Ellipse 274" cx="17.9" cy="17.9" r="17.9" transform="translate(6.393 54.978)" fill="#fff"/>
    </g>
  </g>
</svg>
